<?xml version="1.0" encoding="utf-8"?>
<!-- Generator: Adobe Illustrator 25.4.1, SVG Export Plug-In . SVG Version: 6.00 Build 0)  -->
<svg version="1.1" id="Layer_1" xmlns="http://www.w3.org/2000/svg" xmlns:xlink="http://www.w3.org/1999/xlink" x="0px" y="0px"
	 viewBox="0 0 2048.1 2048.1" style="enable-background:new 0 0 2048.1 2048.1;" xml:space="preserve">
<style type="text/css">
	.st0{display:none;fill:none;stroke:#76C4AC;stroke-width:2.4381;stroke-miterlimit:10;}
	.st1{fill:#76C4AC;stroke:#76C4AC;stroke-width:2.4381;stroke-miterlimit:10;}
	.st2{fill:#76C4AC;stroke:#76C4AC;stroke-width:3.5498;stroke-miterlimit:10;}
	.st3{fill:#FFFFFF;}
</style>
<g>
	<g>
		<g>
			<path class="st0" d="M655.7,573.4c30,2.2,60.3,5.9,89.9,11.2c33.4,5.9,64.6,17.5,92.7,34.6c80.9,49.1,132.7,141.1,135.2,240.1
				c3.4,138.2-117.9,227.8-123.1,231.6c-24.4,17.7-50,28.3-51,28.8c-19,7.8-39,13.2-59.5,16c-1.2,0.2-2.5,0.3-3.8,0.3l-68.8,0h0
				c-15.4,0-28-12.6-28-28c0-7.5,2.9-14.5,8.2-19.8c5.3-5.3,12.3-8.2,19.8-8.2l66.9,0c15.1-2.2,29.8-6.2,43.9-12
				c0.2-0.1,20.8-8.7,39.5-22.3c3.2-2.3,31.9-23.6,58.6-61.5c28.5-40.2,42.4-81.7,41.3-123.3c-2-80.1-43.5-154.3-108.2-193.6
				c-22.1-13.4-46.8-22.6-73.4-27.3c-27.8-4.9-56.1-8.4-84.2-10.5c-27-2-54.5-2.6-81.5-1.9l-0.7,0L96,628.6
				c-7.7,0-14.7-3.1-19.8-8.2l-24.4,10.1c-1.4,12.3-4.3,41.8-5.4,83.5c56.8,0,284.1,0.1,395.4,0.2l2.7,0c28.5,0,95.2,0,185.4-0.2
				c19.5-0.1,39.1-0.1,58.6-0.2c1.5,0,2.9,0.1,4.5,0.3c21.7,3.3,76,16.3,111.6,65.6c7.8,10.8,28.5,39.5,28.5,82.1
				c0,20.5-5,51.5-29,82.8c-38.4,50.1-97.1,56.4-114.1,57.1c-0.5,0-0.8,0-1.1,0l-58.3,0.2c-0.5,0-1,0-1.6,0l-109.2-4.5l334,432.8
				c114.3-127.3,171.9-275.1,200.8-397.8c46.1-195.7,30.2-367.6,26.3-402.2L572.8,414.1L192,572.3l376.9-0.9
				C597.8,570.6,626.9,571.3,655.7,573.4z"/>
			<path class="st1" d="M47.3,715.1c-0.1-16.9,0.4-34.9,1.7-53.8c0.7-10.6,1.7-20.8,2.8-30.7c5.1-2.1,10.3-4.2,15.4-6.2
				c-0.1-8.4-0.2-16.8-0.2-25.2c-20.5,8.9-29.4,12.7-30,13c0,0-0.1,0.1-0.3,0.1c-0.4,0.2-1,0.5-1.7,0.9c-1,0.7-1.9,1.5-2.7,2.5
				c0,0-1.7,2.2-2.3,5.4c-0.7,3.8-3.4,42-6.5,94.3C31.5,715.2,39.4,715.1,47.3,715.1z"/>
			<path class="st1" d="M816,1470.4c-29.5,28.1-66.7,59.3-112.2,89.6c-50,33.3-97.3,57-137.4,73.9c-35-13.7-78.5-34.3-124.5-65.5
				c-44.1-29.9-78.1-61.3-103.3-87.8c-0.5,10.7-0.9,21.3-1.4,32c14.5,13.5,30.4,27.5,47.7,41.5c14.4,11.6,28.5,22.3,42.1,32
				c0,0,78.8,53,130.6,69.4c2.5,0.8,4,1.2,4.3,1.3c0.9,0.4,1.9,0.6,1.9,0.6c0.8,0.2,1.7,0.3,2.5,0.3c1.5,0,3-0.3,4.4-0.9
				c82.9-34.9,140.5-74.3,140.5-74.3c32.6-22.3,73.8-53,119.1-93.3C825.6,1482.9,820.8,1476.7,816,1470.4z"/>
			<path class="st1" d="M78.1,1032.7C62.5,966.3,54,891.5,54,891.5c-2.6-20.7-4.6-42.9-5.7-66.5c-0.9-19.3-1.2-37.8-0.9-55.2
				c-7.8,0.2-15.5,0.4-23.3,0.7c-0.1,110.7,15.9,201.7,31.8,266.8c17.7,72.3,52.4,205.5,152.7,343.5c23.2,31.9,48.5,61.7,75.8,89.6
				l0.1-33.7C166.5,1307.9,107.5,1157.3,78.1,1032.7z"/>
			<path class="st1" d="M1102.7,621c-0.6-3.9-3.1-7.3-6.8-8.9L577.3,391.3c-2.8-1.2-6-1.2-8.8,0C423.2,451.6,278,511.9,132.8,572.2
				c19.9-0.2,39.9-0.4,59.8-0.5c126.7-52.5,253.4-105,380.1-157.6l508.2,216.4c5.3,77.2,11.6,241.8-26.3,402.2
				c-16.6,70.3-38.8,127.7-41.7,135.1c-7.2,18.5-37.5,94.1-83.8,164.4c-21.1,32-45.3,62.5-47.1,64.8c-10.8,13.6-20.5,24.9-28,33.5
				c5,6.4,9.9,12.9,14.9,19.3c27.6-33.6,45.3-55.8,55.2-69.1c0,0,0,0,0,0c0.2-0.3,11.6-15.1,21.7-29.7
				c33.1-47.7,91.7-146.4,131-313.8C1129.1,815,1102.9,622.9,1102.7,621z"/>
		</g>
		<g>
			<g>
				<path class="st1" d="M667.2,1119.2c-6.3,0-11.4-5.1-11.4-11.4c0-6.3,5.1-11.4,11.4-11.4l68.1,0c16.9-2.3,33.4-6.8,49-13.3
					c0.2-0.1,22.4-9.3,42.9-24.2c3.4-2.5,34.2-25.4,62.5-65.4c30.6-43.2,45.5-88.1,44.4-133.3c-2.1-85.7-46.7-165.2-116.2-207.4
					c-23.9-14.5-50.5-24.4-79.1-29.5c-28.3-5-57.2-8.6-85.9-10.7c-27.6-2-55.5-2.6-83.2-1.9c-0.1,0-0.2,0-0.3,0L96,611.9
					c0,0,0,0,0,0c-6.3,0-11.3-5.1-11.4-11.3c0-6.3,5.1-11.4,11.3-11.4l473.2-1.2c28.3-0.7,57-0.1,85.3,2c29.4,2.1,59.1,5.8,88.2,11
					c31.4,5.5,60.6,16.4,86.9,32.4c76.1,46.2,124.8,132.9,127.2,226.3c3.2,129.5-111.3,214.1-116.2,217.7
					c-22.8,16.5-46.6,26.4-47.6,26.8c-17.7,7.3-36.4,12.3-55.4,14.9c-0.5,0.1-1,0.1-1.5,0.1L667.2,1119.2
					C667.2,1119.2,667.2,1119.2,667.2,1119.2z"/>
			</g>
			<g>
				<path class="st1" d="M312.4,1493.5C312.3,1493.5,312.3,1493.5,312.4,1493.5c-6.3,0-11.4-5.1-11.4-11.4l0.6-374.3
					c0-6.3,5.1-11.3,11.4-11.3c0,0,0,0,0,0l150.8,0.2c6.3,0,11.4,5.1,11.3,11.4c0,6.3-5.1,11.3-11.4,11.3c0,0,0,0,0,0l-139.5-0.1
					l-0.6,363C323.7,1488.4,318.6,1493.5,312.4,1493.5z"/>
			</g>
			<g>
				<path class="st1" d="M841.9,1472.2c-3.4,0-6.8-1.5-9-4.4L451.9,974.1c-2.7-3.5-3.1-8.2-1.1-12.2c2-3.9,6.1-6.3,10.6-6.1l169.1,7
					l58-0.2c13-0.6,56.5-5.4,84.3-41.7c17.3-22.5,20.9-44.4,20.9-58.8c0-29.9-14.8-50.4-21.1-59.1c-26.4-36.6-67.4-46.9-84.7-49.6
					c-19.3,0.1-38.6,0.1-57.9,0.2c-92.6,0.3-161.6,0.2-187.5,0.2l-0.7,0c-122.9-0.1-387.5-0.2-407.3-0.2c-6.3,0-11.4-5.1-11.4-11.4
					c0-6.3,5.1-11.4,11.4-11.4c0,0,0,0,0,0c19.8,0,284.4,0.1,407.3,0.2l0.7,0c26,0,94.9,0.1,187.5-0.2c19.6-0.1,39.2-0.1,58.7-0.2
					c0.6,0,1.2,0,1.8,0.1c19.6,3,68.7,14.7,100.6,58.9c6.9,9.6,25.3,35.1,25.4,72.4c0,17.9-4.4,45.1-25.5,72.7
					c-34,44.4-86.4,50-101.6,50.6c-0.1,0-0.3,0-0.4,0l-58.5,0.2c-0.2,0-0.3,0-0.5,0l-145-6l366.1,474.4c3.8,5,2.9,12.1-2.1,15.9
					C846.8,1471.4,844.3,1472.2,841.9,1472.2z"/>
			</g>
		</g>
	</g>
	<g>
		<g>
			<path class="st2" d="M1278.4,813.8c32.3,0,46.2,20,46.2,43c0,17.9-8.5,37-30.4,43.2l33.4,57.5h-27.9l-32.8-55.5h-37.5
				c-2.3,0-3.6,1.1-3.6,3.6v51.9h-25.1v-56.8c0-16.2,6.8-22.8,22.6-22.8h56c14.3,0,20-9.8,20-20c0-10.2-6.2-18.9-20-18.9h-78.7
				v-25.1H1278.4z"/>
			<path class="st3" d="M1475.5,845c29.8,0,48.7,18.3,48.7,56.2s-18.9,56.2-48.7,56.2h-23.6c-30,0-48.7-18.3-48.7-56.2
				s18.7-56.2,48.7-56.2H1475.5z M1454,866.7c-19.6,0-28.1,10.2-28.1,34.5c0,24.3,8.5,34.3,28.1,34.3h19.4c19.4,0,28.1-10,28.1-34.3
				c0-24.3-8.7-34.5-28.1-34.5H1454z"/>
			<path class="st3" d="M1725.5,845l-67.7,157.5h-24.3l21.1-49.2c-12.8,0-17.2-4-21.1-13.8l-37.7-94.5h23.8l33.8,83.6
				c1.5,4,2.6,4.7,6.8,4.7h3l38.1-88.3H1725.5z"/>
			<path class="st3" d="M1874.5,845c28.1,0,39.2,15.7,39.2,37v52.8c0,16.2-4.3,22.6-23.2,22.6h-52.6c-26.6,0-37.7-13-37.7-34.3
				c0-20.4,10.2-32.3,37.9-32.3h53.4v-8.5c0-8.7-4.9-15.5-17.2-15.5H1807V845H1874.5z M1891.5,929.7v-21.1h-53
				c-11.9,0-16.2,4.9-16.2,13.2s4.5,13.6,15.7,13.6h47.2C1889.8,935.5,1891.5,933.8,1891.5,929.7z"/>
			<path class="st3" d="M2024.9,796.3v161.1h-22.6V796.3H2024.9z"/>
			<path class="st2" d="M1285.1,1069.1c32.3,0,46.2,20,46.2,43c0,21.7-12.6,45.1-46.2,45.1h-44.7c-2.3,0-3.6,1.1-3.6,3.6v51.9h-25.1
				v-56.8c0-16.2,6.8-22.8,22.6-22.8h51.7c14.3,0,20-9.8,20-19.8c0-10.4-6.2-19.2-19.8-19.2h-74.7v-25.1H1285.1z"/>
			<path class="st3" d="M1488.3,1100.4v21.7h-39.6c-10,0-14.5,4.7-14.5,14.5v76.2h-22.6v-79.6c0-22.6,8.3-32.8,30.4-32.8H1488.3z"/>
			<path class="st3" d="M1634.3,1100.4c29.8,0,48.7,18.3,48.7,56.2s-18.9,56.2-48.7,56.2h-23.6c-30,0-48.7-18.3-48.7-56.2
				s18.7-56.2,48.7-56.2H1634.3z M1612.8,1122.1c-19.6,0-28.1,10.2-28.1,34.5s8.5,34.3,28.1,34.3h19.4c19.4,0,28.1-10,28.1-34.3
				s-8.7-34.5-28.1-34.5H1612.8z"/>
			<path class="st3" d="M1833.9,1100.4c29.8,0,48.7,18.3,48.7,56.2s-18.9,56.2-48.7,56.2h-23.6c-30,0-48.7-18.3-48.7-56.2
				s18.7-56.2,48.7-56.2H1833.9z M1812.4,1122.1c-19.6,0-28.1,10.2-28.1,34.5s8.5,34.3,28.1,34.3h19.4c19.4,0,28.1-10,28.1-34.3
				s-8.7-34.5-28.1-34.5H1812.4z"/>
			<path class="st3" d="M1970.6,1100.4v-10c0-29.4,10-38.7,33.2-38.7h20.2v20.6h-15.5c-10.6,0-15.1,4.3-15.1,16.8v11.3h31.1v21.7
				h-31.1v90.7h-22.8v-90.7h-15.3v-21.7H1970.6z"/>
		</g>
	</g>
</g>
</svg>
